<svg xmlns="http://www.w3.org/2000/svg" width="40" height="40" viewBox="0 0 40 40"><defs><linearGradient id="3oyca" x1="4.85" x2="37.28" y1="0" y2="40" gradientUnits="userSpaceOnUse"><stop offset="0" stop-color="#df5950"/><stop offset="1" stop-color="#451046"/></linearGradient><linearGradient id="3oycb" x1="22.42" x2="38.62" y1="11.15" y2="40" gradientUnits="userSpaceOnUse"><stop offset="0" stop-color="#df5950"/><stop offset="1" stop-color="#451046"/></linearGradient></defs><g><g><g><path fill="url(#3oyca)" d="M39.903 37.387c.435 1.536-.986 2.957-2.522 2.519l-4.752-1.35c-1.91-.545-3.94-.43-5.808.249a19.984 19.984 0 0 1-7.551 1.183C8.71 39.611.192 30.928.003 20.362-.197 9.03 9.03-.198 20.363.003 30.927.192 39.61 8.71 39.987 19.273a19.919 19.919 0 0 1-1.576 8.552 5.376 5.376 0 0 0-.207 3.572zM20 28.935a8.935 8.935 0 1 0 0-17.87 8.935 8.935 0 0 0 0 17.87z"/></g><g><path fill="url(#3oycb)" d="M37.892 29.02s-.07-.222-.207-.617c-1.065-3.018-6.243-16.085-16.48-17.253 4.365.587 7.73 4.326 7.73 8.85 0 4.935-4 8.935-8.935 8.935v11.062c2.394 0 4.691-.417 6.82-1.19 1.869-.678 3.898-.794 5.809-.249l4.752 1.35c1.536.436 2.957-.982 2.522-2.521l-1.698-5.99a5.436 5.436 0 0 1-.167-2.155z"/></g></g></g></svg>